<svg width="252" height="86" viewBox="0 0 252 86" fill="none" xmlns="http://www.w3.org/2000/svg">
<path d="M78.1398 37.3256V16.0495H80.7162V35.0401H90.6063V37.3256H78.1398Z" fill="black"/>
<path d="M94.5955 37.3256V16.0495H107.436V18.335H97.172V25.524H106.771V27.8096H97.172V35.0401H107.602V37.3256H94.5955Z" fill="black"/>
<path d="M112.952 37.3256H110.251L118.064 16.0495H120.723L128.536 37.3256H125.835L119.477 19.4154H119.31L112.952 37.3256ZM113.95 29.0146H124.837V31.3002H113.95V29.0146Z" fill="black"/>
<path d="M138.415 37.3256H131.85V16.0495H138.706C140.77 16.0495 142.536 16.4754 144.004 17.3273C145.473 18.1723 146.598 19.3877 147.381 20.9738C148.163 22.5528 148.555 24.4436 148.555 26.646C148.555 28.8623 148.16 30.7703 147.37 32.3702C146.581 33.9632 145.431 35.189 143.921 36.0478C142.411 36.8997 140.576 37.3256 138.415 37.3256ZM134.426 35.0401H138.249C140.008 35.0401 141.466 34.7008 142.623 34.022C143.779 33.3433 144.642 32.3771 145.21 31.1236C145.777 29.87 146.061 28.3775 146.061 26.646C146.061 24.9284 145.781 23.4497 145.22 22.21C144.659 20.9634 143.821 20.0076 142.706 19.3427C141.591 18.6709 140.202 18.335 138.54 18.335H134.426V35.0401Z" fill="black"/>
<path d="M152.876 37.3256V16.0495H165.717V18.335H155.453V25.524H165.052V27.8096H155.453V35.0401H165.883V37.3256H152.876Z" fill="black"/>
<path d="M170.361 37.3256V16.0495H177.55C179.212 16.0495 180.576 16.3334 181.643 16.9014C182.709 17.4624 183.499 18.2346 184.012 19.2181C184.524 20.2015 184.78 21.32 184.78 22.5736C184.78 23.8272 184.524 24.9388 184.012 25.9084C183.499 26.878 182.713 27.6399 181.653 28.1939C180.594 28.7411 179.24 29.0146 177.591 29.0146H171.774V26.6876H177.508C178.644 26.6876 179.558 26.5213 180.251 26.1889C180.95 25.8565 181.456 25.3855 181.768 24.776C182.086 24.1596 182.245 23.4255 182.245 22.5736C182.245 21.7217 182.086 20.9772 181.768 20.34C181.449 19.7029 180.94 19.2111 180.24 18.8648C179.541 18.5116 178.616 18.335 177.467 18.335H172.937V37.3256H170.361ZM180.375 27.768L185.611 37.3256H182.619L177.467 27.768H180.375Z" fill="black"/>
<path d="M200.709 21.3685C200.584 20.3158 200.079 19.4986 199.192 18.9168C198.306 18.335 197.218 18.0441 195.93 18.0441C194.988 18.0441 194.164 18.1965 193.457 18.5012C192.758 18.806 192.211 19.225 191.816 19.7583C191.428 20.2916 191.234 20.8976 191.234 21.5763C191.234 22.1442 191.369 22.6325 191.639 23.0411C191.916 23.4428 192.27 23.7787 192.699 24.0488C193.129 24.312 193.579 24.5302 194.05 24.7033C194.521 24.8695 194.953 25.0046 195.348 25.1085L197.509 25.6902C198.063 25.8357 198.68 26.0365 199.358 26.2928C200.044 26.5491 200.698 26.8988 201.322 27.3421C201.952 27.7784 202.471 28.3394 202.88 29.025C203.289 29.7107 203.493 30.5522 203.493 31.5495C203.493 32.6992 203.192 33.7381 202.589 34.6661C201.994 35.5942 201.121 36.3318 199.971 36.8789C198.828 37.4261 197.44 37.6996 195.805 37.6996C194.282 37.6996 192.962 37.4538 191.847 36.962C190.739 36.4703 189.866 35.7846 189.229 34.9051C188.599 34.0255 188.242 33.0039 188.159 31.8404H190.819C190.888 32.6438 191.158 33.3087 191.629 33.835C192.107 34.3545 192.709 34.7423 193.437 34.9986C194.171 35.2479 194.96 35.3726 195.805 35.3726C196.789 35.3726 197.672 35.2133 198.454 34.8947C199.237 34.5692 199.857 34.119 200.314 33.5441C200.771 32.9624 201 32.2836 201 31.5079C201 30.8015 200.802 30.2267 200.408 29.7834C200.013 29.3402 199.493 28.98 198.849 28.703C198.205 28.426 197.509 28.1835 196.761 27.9758L194.143 27.2278C192.481 26.7499 191.165 26.0677 190.195 25.1812C189.226 24.2947 188.741 23.1346 188.741 21.701C188.741 20.5097 189.063 19.4709 189.707 18.5843C190.358 17.6909 191.231 16.9983 192.325 16.5066C193.426 16.0079 194.656 15.7586 196.013 15.7586C197.384 15.7586 198.603 16.0045 199.67 16.4962C200.737 16.981 201.581 17.6459 202.205 18.4908C202.835 19.3358 203.167 20.295 203.202 21.3685H200.709Z" fill="black"/>
<path d="M207.729 37.3256V16.0495H210.305V25.524H221.65V16.0495H224.226V37.3256H221.65V27.8096H210.305V37.3256H207.729Z" fill="black"/>
<path d="M231.961 16.0495V37.3256H229.384V16.0495H231.961Z" fill="black"/>
<path d="M237.127 37.3256V16.0495H244.316C245.985 16.0495 247.349 16.3508 248.409 16.9533C249.475 17.5489 250.265 18.3558 250.777 19.3739C251.29 20.392 251.546 21.5278 251.546 22.7814C251.546 24.035 251.29 25.1743 250.777 26.1993C250.272 27.2243 249.489 28.0416 248.43 28.651C247.37 29.2536 246.012 29.5549 244.357 29.5549H239.204V27.2693H244.274C245.417 27.2693 246.334 27.072 247.027 26.6772C247.72 26.2824 248.222 25.7491 248.533 25.0773C248.852 24.3986 249.011 23.6333 249.011 22.7814C249.011 21.9295 248.852 21.1677 248.533 20.4959C248.222 19.8241 247.716 19.2977 247.017 18.9168C246.317 18.5289 245.389 18.335 244.232 18.335H239.703V37.3256H237.127Z" fill="black"/>
<path d="M51.6996 41.8998C49.7284 41.5789 48.1697 41.3039 46.6111 41.1205C40.9267 40.3412 35.4256 39.0576 30.5663 35.8028C26.5322 33.0981 23.4149 29.3391 20.3894 25.6258C17.593 22.1877 14.8883 18.6578 12.1836 15.1738C11.6793 14.4403 10.9459 14.3945 11.1292 15.403C11.3126 16.5491 11.5877 17.6951 11.9544 18.7954C14.109 25.4883 16.2177 32.2271 18.5098 38.8742C19.335 41.3039 19.3808 43.5501 18.5557 45.9798C16.9512 50.4723 15.4384 55.0107 14.0173 59.5491C13.6964 60.5118 13.8339 61.612 13.7881 62.6205C14.8883 62.5747 16.0343 62.758 16.997 62.3913C19.61 61.5203 22.1314 60.3284 24.7444 59.3657C27.2198 58.4489 27.9533 58.6781 29.1911 61.0619C32.7209 67.8007 36.2049 74.6312 39.6889 81.4158C40.4683 82.9286 41.2934 84.4414 42.0727 86C42.2561 85.9542 42.2102 85.9542 42.4395 85.9084C42.1186 83.1578 41.7977 80.3614 41.4768 77.6109C40.9267 72.935 40.3766 68.2591 39.8265 63.5832C39.5972 61.3369 39.4597 59.0448 39.2305 56.7527C38.9555 54.3231 39.8723 52.306 41.6143 50.7474C44.1815 48.3636 46.8862 46.1173 49.4992 43.8252C50.0951 43.2751 50.7369 42.725 51.6996 41.8998Z" fill="#8ED1F8"/>
<path d="M27.174 28.6972C27.7241 26.9094 27.9533 25.4883 28.5493 24.2047C31.1164 18.6119 37.8094 17.0992 42.1186 21.0874C45.5567 24.2505 45.5109 30.7601 41.981 34.4734C41.3393 35.1151 40.6516 35.7111 39.6889 36.5821C42.5312 37.0864 45.1442 37.5448 47.7113 38.0491C49.3158 38.3699 51.012 38.5075 52.5248 39.0576C54.6793 39.8369 55.367 42.2665 53.9 44.0544C53.0749 45.1088 51.9746 45.9339 50.9203 46.8507C48.674 48.822 46.3819 50.6557 44.1815 52.6727C42.9437 53.7729 42.1644 55.1482 42.3019 56.936C42.8062 62.2537 43.2646 67.5714 43.7689 72.935C43.8147 73.21 43.9523 73.4851 44.0898 73.8977C54.3126 68.8092 60.7764 60.7868 62.1975 49.5096C63.8936 35.9862 58.7593 25.2132 47.0695 18.0618C37.6719 12.3316 27.77 12.2857 17.4555 16.8241C20.8019 20.8124 23.9192 24.6631 27.174 28.6972Z" fill="#1177AA"/>
<path d="M33.9586 76.1897C31.3915 71.5138 28.916 67.0213 26.3947 62.3912C24.1942 63.2622 22.1313 64.0874 20.0226 64.8208C18.5098 65.3709 16.997 65.921 15.4384 66.1961C12.0002 66.8837 9.57058 64.5916 10.3499 61.1535C11.2209 57.3944 12.4586 53.6812 13.6964 50.0138C16.722 41.0287 16.5386 43.8251 13.7422 35.0692C12.4128 30.9434 11.0375 26.8635 9.66226 22.7377C9.66226 22.6918 9.57058 22.6918 9.57058 22.646C1.04393 30.1641 -3.63198 45.3379 3.47357 59.4573C9.61642 71.6972 23.5525 77.9317 33.9586 76.1897Z" fill="#1177AA"/>
<path d="M35.4256 34.3358C37.9011 34.1983 40.0557 32.6396 40.9725 30.1641C41.9352 27.5053 41.3392 24.8464 39.4139 23.242C38.1761 22.1876 36.7092 22.1418 35.2881 22.4168C33.2252 22.7835 31.1164 25.2132 30.7038 27.597C30.2913 30.0725 31.2998 32.5021 33.271 33.6481C33.9128 34.0149 34.738 34.1066 35.4256 34.3358Z" fill="#8ED1F8"/>
<path d="M4.20705 4.81343C6.95759 6.73881 7.64522 8.98507 6.40748 12.0565C9.06633 9.94776 11.496 9.9936 14.109 12.0107C12.9171 8.89339 13.6506 6.60128 16.7678 4.81343C14.9341 4.4467 13.4213 4.49253 12.4587 3.8049C11.496 3.07142 11.0375 1.60448 10.1207 0C9.34139 3.34648 7.50769 4.90512 4.20705 4.81343Z" fill="#8ED1F8"/>
<path d="M78.1384 67.7633V46.4871H85.5767C87.0588 46.4871 88.2813 46.7434 89.2439 47.2559C90.2066 47.7615 90.9235 48.4437 91.3944 49.3025C91.8654 50.1543 92.1009 51.0997 92.1009 52.1386C92.1009 53.0528 91.9381 53.8077 91.6126 54.4033C91.294 54.999 90.8715 55.4699 90.3452 55.8162C89.8257 56.1625 89.2613 56.4188 88.6518 56.585V56.7928C89.3028 56.8343 89.9573 57.0629 90.6153 57.4784C91.2732 57.894 91.8238 58.4896 92.2671 59.2653C92.7103 60.041 92.932 60.9898 92.932 62.1118C92.932 63.1784 92.6895 64.1376 92.2047 64.9895C91.7199 65.8414 90.9546 66.5166 89.9088 67.0153C88.863 67.514 87.5021 67.7633 85.826 67.7633H78.1384ZM80.7148 65.4778H85.826C87.509 65.4778 88.7037 65.1522 89.4102 64.5012C90.1235 63.8433 90.4802 63.0468 90.4802 62.1118C90.4802 61.3915 90.2967 60.7266 89.9296 60.1172C89.5625 59.5008 89.0396 59.009 88.3609 58.642C87.6822 58.268 86.8788 58.081 85.9507 58.081H80.7148V65.4778ZM80.7148 55.837H85.4936C86.2693 55.837 86.9688 55.6846 87.5921 55.3799C88.2224 55.0752 88.721 54.6458 89.0881 54.0917C89.4621 53.5376 89.6491 52.8866 89.6491 52.1386C89.6491 51.2036 89.3236 50.4106 88.6726 49.7596C88.0215 49.1016 86.9896 48.7726 85.5767 48.7726H80.7148V55.837Z" fill="#1177AA"/>
<path d="M111.128 46.4871H113.704V60.5743C113.704 62.0287 113.361 63.3273 112.676 64.47C111.997 65.6059 111.038 66.5028 109.798 67.1607C108.558 67.8118 107.104 68.1373 105.435 68.1373C103.766 68.1373 102.311 67.8118 101.072 67.1607C99.8318 66.5028 98.8691 65.6059 98.1835 64.47C97.5047 63.3273 97.1654 62.0287 97.1654 60.5743V46.4871H99.7418V60.3665C99.7418 61.4054 99.9703 62.33 100.427 63.1403C100.885 63.9437 101.536 64.5774 102.381 65.0414C103.232 65.4985 104.25 65.7271 105.435 65.7271C106.619 65.7271 107.637 65.4985 108.489 65.0414C109.341 64.5774 109.992 63.9437 110.442 63.1403C110.899 62.33 111.128 61.4054 111.128 60.3665V46.4871Z" fill="#1177AA"/>
<path d="M121.426 46.4871V67.7633H118.849V46.4871H121.426Z" fill="#1177AA"/>
<path d="M126.591 67.7633V46.4871H129.168V65.4778H139.058V67.7633H126.591Z" fill="#1177AA"/>
<path d="M149.613 67.7633H143.047V46.4871H149.904C151.968 46.4871 153.734 46.9131 155.202 47.7649C156.67 48.6099 157.796 49.8254 158.578 51.4114C159.361 52.9905 159.752 54.8812 159.752 57.0836C159.752 59.2999 159.358 61.208 158.568 62.8078C157.779 64.4008 156.629 65.6267 155.119 66.4855C153.609 67.3373 151.774 67.7633 149.613 67.7633ZM145.624 65.4778H149.447C151.206 65.4778 152.664 65.1384 153.82 64.4597C154.977 63.7809 155.839 62.8148 156.407 61.5612C156.975 60.3076 157.259 58.8151 157.259 57.0836C157.259 55.366 156.979 53.8874 156.418 52.6476C155.857 51.401 155.019 50.4452 153.904 49.7804C152.788 49.1085 151.4 48.7726 149.738 48.7726H145.624V65.4778Z" fill="#1177AA"/>
<path d="M164.074 67.7633V46.4871H176.915V48.7726H166.651V55.9617H176.25V58.2472H166.651V65.4778H177.081V67.7633H164.074Z" fill="#1177AA"/>
<path d="M181.558 67.7633V46.4871H188.747C190.41 46.4871 191.774 46.7711 192.841 47.339C193.907 47.9 194.697 48.6722 195.209 49.6557C195.722 50.6392 195.978 51.7577 195.978 53.0113C195.978 54.2648 195.722 55.3764 195.209 56.346C194.697 57.3157 193.911 58.0775 192.851 58.6316C191.791 59.1787 190.437 59.4523 188.789 59.4523H182.971V57.1252H188.706C189.842 57.1252 190.756 56.959 191.448 56.6265C192.148 56.2941 192.654 55.8231 192.965 55.2137C193.284 54.5973 193.443 53.8631 193.443 53.0113C193.443 52.1594 193.284 51.4149 192.965 50.7777C192.647 50.1405 192.138 49.6488 191.438 49.3025C190.739 48.9493 189.814 48.7726 188.664 48.7726H184.135V67.7633H181.558ZM191.573 58.2056L196.809 67.7633H193.817L188.664 58.2056H191.573Z" fill="#1177AA"/>
</svg>
