<svg width="235" height="165" viewBox="0 0 235 165" fill="none" xmlns="http://www.w3.org/2000/svg">
<path d="M46.7646 -17.5947C132.813 -41.0136 182.25 62.9569 88.206 83.4031C47.1269 92.3574 85.3255 118.327 34.1099 94.8537C40.3115 74.331 40.8742 67.7059 48.3134 62.9151C61.8175 54.2083 77.1393 57.9763 91.0539 48.0888C106.739 36.9489 102.435 14.4659 76.2897 11.0313C48.5465 7.40138 52.5164 20.7219 46.7696 -17.6066L46.7646 -17.5947Z" fill="#00D6CA" fill-opacity="0.2"/>
<path d="M12.3551 123.894C23.3764 99.8543 60.6263 117.158 49.6895 140.996C38.7229 164.906 1.30398 148.006 12.3551 123.894Z" fill="#00D6CA" fill-opacity="0.2"/>
<path d="M44.862 100.305C41.7173 98.9883 38.0782 97.3804 33.8376 95.4369L33.3135 95.2173L33.4895 94.6635C34.6109 90.9498 35.5485 87.6751 36.3747 84.7999C40.109 71.8058 41.665 66.4195 47.9523 62.3734C54.5325 58.1293 61.6358 56.7817 68.4938 55.4847C75.888 54.0776 83.5344 52.6367 90.6709 47.5658C97.6426 42.6211 100.844 35.0791 99.0296 27.8769C96.8737 19.3182 88.3477 13.265 76.2011 11.6775C69.0739 10.7421 64.073 10.9484 60.4203 11.0779C50.3707 11.4703 50.3142 11.0702 47.1985 -10.2733C46.8807 -12.4563 46.5302 -14.8622 46.1282 -17.5127L46.043 -18.0783L46.5941 -18.2239C76.3824 -26.3295 105.296 -19.8109 123.957 -0.783029C137.567 13.0891 142.835 30.8996 138.084 46.8563C132.658 65.0264 115.008 78.2161 88.3577 84.0105C70.4851 87.9034 67.9326 95.0338 66.2379 99.7485C65.4507 101.929 64.7709 103.819 62.8365 104.627C60.1713 105.742 55.2473 104.627 44.8839 100.287L44.862 100.305ZM34.8894 94.4969C51.8925 102.274 59.3477 104.699 62.3167 103.461C63.7278 102.867 64.2675 101.377 65 99.3276C66.7922 94.347 69.4898 86.8033 88.0524 82.7671C114.224 77.079 131.548 64.1991 136.821 46.4948C141.453 30.99 136.282 13.6521 123.019 0.120693C104.811 -18.4523 76.6032 -24.8844 47.4793 -17.1281C47.8486 -14.7004 48.1634 -12.4768 48.4644 -10.4543C50.4723 3.27161 54.4376 10.0176 60.3602 9.78374C64.0586 9.64549 69.1291 9.4405 76.3615 10.392C89.0393 12.0486 97.984 18.4725 100.269 27.5592C102.212 35.2895 98.8208 43.3517 91.4082 48.6137C84.0392 53.8382 76.2628 55.3223 68.7365 56.7438C61.6789 58.0827 55.0155 59.3496 48.6508 63.4469C42.7628 67.2418 41.3678 72.11 37.6136 85.1515C36.8301 87.8912 35.9383 90.9899 34.8775 94.4919L34.8894 94.4969Z" fill="#00D6CA" fill-opacity="0.2"/>
<path d="M23.1787 151.339C22.9285 151.234 22.6784 151.129 22.4282 151.025C13.1827 146.79 5.89261 136.415 11.7476 123.64C14.9473 116.669 20.628 112.467 27.7549 111.798C35.664 111.067 44.0926 114.946 48.7146 121.428C52.8831 127.287 53.4362 134.324 50.2464 141.271C44.5474 153.707 32.3697 155.203 23.1499 151.341L23.1787 151.339ZM12.9407 124.168C7.45246 136.134 14.2941 145.874 22.9778 149.846C31.7111 153.867 43.6225 152.706 49.0989 140.735C52.0761 134.228 51.5764 127.633 47.6897 122.17C43.3118 116.041 35.3666 112.379 27.9062 113.075C21.25 113.689 15.9447 117.631 12.9407 124.168Z" fill="#00D6CA" fill-opacity="0.2"/>
<path d="M42.5664 105.619C39.3502 104.272 35.6754 102.649 31.4348 100.706L26.3108 98.3641L27.9313 92.9909C29.0428 89.3009 29.9823 86.0549 30.7986 83.2035C34.7099 69.5863 36.6755 62.7539 44.7901 57.5209L44.9837 57.3929L45.6773 58.4782L45.4886 58.5944C37.7782 63.5644 35.8653 70.2375 32.0375 83.555C31.2163 86.4183 30.2767 89.6644 29.1603 93.3662L27.8649 97.6624L31.9625 99.5461C52.4845 108.95 59.4931 110.938 64.5703 108.811C66.0489 108.189 67.2347 107.264 68.2052 105.983L69.2414 106.752C68.1338 108.226 66.7781 109.29 65.0801 110.001C60.7049 111.822 55.212 110.93 42.5615 105.631L42.5664 105.619Z" fill="#00D6CA" fill-opacity="0.2"/>
<path d="M93.107 38.5739L91.9973 37.9139C92.3192 37.3793 92.5934 36.8249 92.822 36.2792C93.5624 34.5115 93.8481 32.6929 93.6642 30.8588C93.2272 26.3529 89.9038 22.3533 84.5346 19.8952C83.7464 19.5372 82.9145 19.2167 82.0608 18.9149L82.4743 17.6936C83.3807 18.0035 84.2433 18.3508 85.0672 18.7238C90.8603 21.3734 94.4704 25.7581 94.946 30.7403C95.1387 32.7872 94.8331 34.8206 94.0132 36.7781C93.7598 37.3831 93.4488 37.9919 93.107 38.5739Z" fill="#00D6CA" fill-opacity="0.2"/>
<path d="M51.3667 15.9454C51.2475 15.8955 51.1284 15.8456 51.0093 15.7957C44.7139 12.9079 43.8932 7.27909 41.4427 -9.43505C41.1249 -11.618 40.7694 -14.012 40.3793 -16.6575L39.5347 -22.2963L45.0486 -23.7938C58.767 -27.5302 72.1964 -28.4035 84.9724 -26.413L84.7763 -25.1425C72.187 -27.1106 58.9254 -26.2367 45.3945 -22.5472L40.9829 -21.3412L41.6572 -16.8335C42.0592 -14.183 42.4097 -11.7771 42.7206 -9.61101C45.0898 6.595 45.8868 12.0465 51.537 14.6362C52.8989 15.2624 54.3781 15.5752 56.316 15.6618L56.2659 16.9516C54.311 16.8719 52.7742 16.5628 51.3567 15.9691L51.3667 15.9454Z" fill="#00D6CA" fill-opacity="0.2"/>
<path d="M111.21 82.6357L110.667 81.4598C125.34 74.7071 135.76 64.806 140.789 52.8002C141.842 50.2852 142.663 47.6585 143.253 44.9776L144.51 45.253C143.913 48.0151 143.063 50.7129 141.98 53.2992C136.827 65.6015 126.193 75.7474 111.215 82.6239L111.21 82.6357Z" fill="#00D6CA" fill-opacity="0.2"/>
<path d="M20.1376 156.326L20.0185 156.276C8.23974 150.869 -0.342796 137.429 6.04733 122.173C6.18149 121.852 6.32062 121.52 6.47166 121.193C7.7943 118.303 9.47619 115.758 11.4756 113.625L12.4214 114.509C10.5193 116.544 8.91593 118.968 7.64795 121.728C7.51379 122.048 7.37268 122.351 7.24348 122.66C1.17138 137.157 9.33917 149.949 20.561 155.081L20.1356 156.298L20.1376 156.326ZM47.8744 153.72L47.0647 152.712C50.1206 150.296 52.5722 147.084 54.3728 143.153C54.502 142.844 54.6481 142.529 54.7773 142.221C56.7997 137.392 57.3477 132.574 56.4074 127.899L57.6743 127.649C58.6731 132.585 58.0902 137.654 55.9685 142.72C55.8343 143.04 55.7002 143.36 55.5491 143.687C53.6571 147.803 51.0833 151.174 47.8625 153.715L47.8744 153.72Z" fill="#00D6CA" fill-opacity="0.2"/>
<path d="M103.031 46.2029C169.96 27.9817 208.429 108.867 135.26 124.768C103.305 131.729 133.014 151.926 93.1775 133.678C97.9983 117.723 98.4362 112.565 104.225 108.84C114.733 102.072 126.642 104.996 137.48 97.3061C149.691 88.6434 146.336 71.1462 126 68.4852C104.415 65.6637 107.511 76.0242 103.031 46.2029Z" fill="#0087EB" fill-opacity="0.2"/>
<path d="M76.2614 156.281C84.8332 137.588 113.807 151.048 105.3 169.588C96.7683 188.186 67.6648 175.034 76.2614 156.281Z" fill="#0087EB" fill-opacity="0.2"/>
<path d="M101.46 138.04C99.018 137.017 96.1959 135.765 92.9291 134.271L92.405 134.052L92.569 133.493C93.4459 130.597 94.1736 128.057 94.8129 125.829C97.731 115.686 98.946 111.482 103.876 108.304C109.016 104.99 114.554 103.935 119.905 102.928C125.638 101.843 131.571 100.716 137.092 96.7949C142.469 92.9814 144.933 87.1665 143.528 81.6278C141.866 75.033 135.269 70.3592 125.9 69.1264C120.366 68.3983 116.478 68.5547 113.645 68.6651C105.702 68.9775 105.606 68.3376 103.206 51.9375C102.962 50.2458 102.683 48.3718 102.373 46.3037L102.288 45.7381L102.839 45.5924C126.057 39.2669 148.608 44.3617 163.158 59.1992C173.771 70.0311 177.902 83.9353 174.178 96.4037C169.947 110.584 156.165 120.89 135.385 125.406C121.565 128.416 119.583 133.917 118.283 137.556C117.656 139.287 117.128 140.781 115.565 141.438C113.457 142.326 109.579 141.454 101.443 138.047L101.46 138.04ZM93.969 133.326C107.072 139.317 112.812 141.191 115.072 140.241C116.111 139.798 116.526 138.675 117.084 137.109C118.481 133.205 120.603 127.302 135.119 124.137C155.42 119.727 168.859 109.738 172.954 96.0165C176.542 84.007 172.535 70.5735 162.253 60.0892C148.145 45.7016 126.318 40.7151 103.746 46.6695C104.023 48.5148 104.272 50.1946 104.493 51.7378C106.039 62.3325 109.076 67.5412 113.602 67.3642C116.481 67.245 120.433 67.1016 126.077 67.8341C136.006 69.1341 142.998 74.1685 144.801 81.2964C146.335 87.3632 143.669 93.6933 137.851 97.8241C132.093 101.91 126.023 103.064 120.153 104.175C114.677 105.214 109.504 106.199 104.574 109.377C100.044 112.304 98.955 116.074 96.0519 126.181C95.4503 128.285 94.7683 130.649 93.9571 133.321L93.969 133.326Z" fill="#0087EB" fill-opacity="0.2"/>
<path d="M84.6322 177.748C81.5232 176.446 78.752 174.337 76.831 171.636C73.5595 167.044 73.1547 161.492 75.6638 156.003C80.2458 145.999 90.1289 145.035 97.403 148.361C104.934 151.808 110.267 160.303 105.886 169.861C103.382 175.338 98.8938 178.632 93.2553 179.157C90.3413 179.428 87.355 178.902 84.6272 177.76L84.6322 177.748ZM76.8401 156.537C74.5218 161.605 74.895 166.697 77.8847 170.892C81.2386 175.588 87.3602 178.389 93.1308 177.849C98.2867 177.373 102.399 174.341 104.708 169.297C108.923 160.103 103.595 152.6 96.8634 149.515C90.168 146.446 81.0555 147.343 76.8401 156.537Z" fill="#0087EB" fill-opacity="0.2"/>
<path d="M99.2785 143.415C96.7413 142.352 93.8477 141.071 90.5094 139.547L85.3854 137.206L87.0059 131.832C87.8449 129.06 88.5449 126.62 89.1712 124.456L89.2319 124.244C92.3727 113.303 93.9565 107.816 100.709 103.463C102.974 101.999 105.415 100.818 108.183 99.8584L108.613 101.071C105.953 102.006 103.59 103.136 101.419 104.541C95.0662 108.644 93.535 113.971 90.4708 124.596L90.4101 124.808C89.7838 126.972 89.0789 129.424 88.2348 132.208L86.9394 136.504L91.0371 138.387C107.552 145.96 112.964 147.446 117.327 145.62C120.723 144.198 121.771 141.262 122.543 139.117C122.816 138.367 123.111 137.528 123.586 136.695L124.71 137.32C124.287 138.063 124.027 138.818 123.759 139.557C122.959 141.802 121.74 145.181 117.82 146.817C113.985 148.418 109.603 147.781 99.2636 143.451L99.2785 143.415Z" fill="#0087EB" fill-opacity="0.2"/>
<path d="M137.765 89.8395L136.697 89.1133C137.032 88.6125 137.321 88.0917 137.544 87.5579C138.026 86.4071 138.216 85.2178 138.1 84.0254C137.836 81.2793 135.833 78.7393 132.598 77.0358L133.202 75.8943C136.827 77.8031 139.081 80.7132 139.386 83.8951C139.529 85.2934 139.307 86.6925 138.74 88.0449C138.487 88.65 138.164 89.2538 137.775 89.8158L137.765 89.8395Z" fill="#0087EB" fill-opacity="0.2"/>
<path d="M106.05 73.6276C105.943 73.5827 105.836 73.5378 105.741 73.4979C100.138 70.9281 99.4103 65.9798 97.4786 52.7739C97.2351 51.0822 96.9509 49.2201 96.6529 47.1569L95.8083 41.5181L101.322 40.0207C115.103 36.2687 128.888 36.1855 141.201 39.7813L140.84 41.0106C128.751 37.481 115.204 37.5659 101.656 41.2623L97.2446 42.4683L97.9188 46.976C98.2337 49.0322 98.501 50.9012 98.7446 52.5929C100.602 65.3076 101.299 70.0618 106.268 72.3384C108.558 73.423 111.008 73.2916 113.84 73.1811C114.936 73.1382 116.131 73.0946 117.49 73.0922L117.497 74.3782C116.167 74.3788 114.984 74.4273 113.9 74.4752C111.022 74.5944 108.518 74.6891 106.04 73.6513L106.05 73.6276Z" fill="#0087EB" fill-opacity="0.2"/>
<path d="M157.883 123.408L157.262 122.283C166.933 116.977 173.647 109.973 177.22 101.443C178.09 99.3668 178.762 97.194 179.233 94.9651L180.495 95.2287C180.01 97.5219 179.304 99.7777 178.404 101.925C174.717 110.728 167.815 117.947 157.876 123.391L157.883 123.408Z" fill="#0087EB" fill-opacity="0.2"/>
<path d="M81.6338 182.767C71.8502 178.279 64.7134 167.104 70.0351 154.398C70.1494 154.126 70.2637 153.853 70.3899 153.585C76.5768 140.084 90.1345 138.637 99.8177 143.097C107.206 146.485 112.333 153.164 113.203 160.515L111.923 160.662C111.112 153.74 106.266 147.458 99.2851 144.269C90.1657 140.1 77.3913 141.415 71.5612 154.131C71.4519 154.392 71.3307 154.648 71.2214 154.909C66.2176 166.856 72.9397 177.383 82.1614 181.608L81.6288 182.779L81.6338 182.767Z" fill="#0087EB" fill-opacity="0.2"/>
<path d="M175.946 8.94418C174.078 13.4048 168.934 15.4896 164.467 13.6186C160 11.7476 157.882 6.6075 159.746 2.15872C161.609 -2.29007 166.758 -4.38667 171.225 -2.51567C175.692 -0.644679 177.809 4.4954 175.946 8.94418Z" fill="#00D6CA" fill-opacity="0.2"/>
<path d="M189.019 -29.8547C191.005 -29.0226 193.288 -29.952 194.117 -31.9307C194.945 -33.9094 194.007 -36.1881 192.02 -37.0203C190.033 -37.8524 187.751 -36.923 186.922 -34.9443C186.093 -32.9656 187.032 -30.6869 189.019 -29.8547Z" fill="#00D6CA" fill-opacity="0.2"/>
<path d="M229.372 -50.3804C231.358 -49.5482 233.641 -50.4777 234.47 -52.4564C235.298 -54.4351 234.36 -56.7137 232.373 -57.5459C230.386 -58.3781 228.104 -57.4486 227.275 -55.4699C226.446 -53.4912 227.385 -51.2126 229.372 -50.3804Z" fill="#00D6CA" fill-opacity="0.2"/>
<path d="M227.505 17.8919C229.617 18.7764 232.043 17.7884 232.924 15.6853C233.805 13.5821 232.807 11.1601 230.695 10.2755C228.583 9.39101 226.157 10.3789 225.276 12.4821C224.396 14.5853 225.393 17.0073 227.505 17.8919Z" fill="#00D6CA" fill-opacity="0.2"/>
<path d="M5.5609 104.915C4.98947 106.279 3.41954 106.918 2.04967 106.344C0.679793 105.771 0.0341024 104.203 0.605533 102.839C1.17697 101.475 2.7469 100.835 4.11677 101.409C5.48665 101.983 6.13234 103.55 5.5609 104.915Z" fill="#00D6CA" fill-opacity="0.2"/>
<path d="M36.3526 185.541C38.9643 186.635 41.9648 185.413 43.0543 182.812C44.1438 180.211 42.9097 177.215 40.2979 176.121C37.6862 175.027 34.6857 176.249 33.5962 178.85C32.5067 181.452 33.7408 184.447 36.3526 185.541Z" fill="#00D6CA" fill-opacity="0.2"/>
<path d="M82.5136 -44.6785C81.3211 -41.8312 78.0293 -40.4908 75.1704 -41.6882C72.3115 -42.8856 70.9577 -46.1719 72.1502 -49.0192C73.3428 -51.8664 76.6346 -53.2068 79.4934 -52.0094C82.3523 -50.812 83.7062 -47.5257 82.5136 -44.6785Z" fill="#00D6CA" fill-opacity="0.2"/>
<path d="M118.616 -66.4547C118.044 -65.0904 116.475 -64.4511 115.105 -65.0248C113.735 -65.5986 113.089 -67.1659 113.661 -68.5302C114.232 -69.8945 115.802 -70.5338 117.172 -69.96C118.542 -69.3863 119.187 -67.8189 118.616 -66.4547Z" fill="#00D6CA" fill-opacity="0.2"/>
<path d="M185.023 39.0876C187.01 39.9198 189.292 38.9903 190.121 37.0116C190.95 35.0329 190.011 32.7543 188.024 31.9221C186.038 31.09 183.755 32.0194 182.926 33.9981C182.098 35.9768 183.036 38.2555 185.023 39.0876Z" fill="#0087EB" fill-opacity="0.2"/>
<path d="M168.471 -74.2989C167.328 -71.5703 164.188 -70.2917 161.449 -71.4392C158.709 -72.5868 157.418 -75.7214 158.56 -78.45C159.703 -81.1785 162.843 -82.4571 165.583 -81.3096C168.323 -80.162 169.614 -77.0274 168.471 -74.2989Z" fill="#0087EB" fill-opacity="0.2"/>
<path d="M153.69 -23.8326C153.327 -22.9666 152.331 -22.561 151.462 -22.9252C150.592 -23.2895 150.183 -24.2838 150.545 -25.1498C150.908 -26.0158 151.904 -26.4214 152.774 -26.0572C153.643 -25.693 154.053 -24.6987 153.69 -23.8326Z" fill="#0087EB" fill-opacity="0.2"/>
<path d="M136.109 151.423C138.721 152.517 141.722 151.295 142.811 148.694C143.901 146.093 142.666 143.098 140.055 142.004C137.443 140.91 134.442 142.131 133.353 144.733C132.263 147.334 133.498 150.329 136.109 151.423Z" fill="#0087EB" fill-opacity="0.2"/>
<path d="M123.422 179.841C123.109 180.589 122.253 180.927 121.515 180.618C120.776 180.309 120.422 179.449 120.73 178.714C121.038 177.978 121.899 177.628 122.638 177.937C123.376 178.246 123.73 179.106 123.422 179.841Z" fill="#0087EB" fill-opacity="0.2"/>
<path d="M131.216 210.507C130.903 211.255 130.047 211.593 129.309 211.284C128.57 210.975 128.216 210.115 128.524 209.38C128.832 208.644 129.693 208.294 130.432 208.603C131.17 208.912 131.525 209.772 131.216 210.507Z" fill="#0087EB" fill-opacity="0.2"/>
</svg>
