<svg width="247" height="165" viewBox="0 0 247 165" fill="none" xmlns="http://www.w3.org/2000/svg">
<path d="M100.797 -14.696L84.9406 2.7532L86.9372 -5.79287C89.3592 -4.56488 90.9735 -2.86131 91.7803 -0.682157C92.5871 1.49699 92.3622 3.82569 91.1056 6.30392C89.8776 8.72583 88.0896 10.2973 85.7415 11.0184C83.4782 11.7118 81.192 11.473 78.8827 10.3021C76.5171 9.1027 74.9171 7.37097 74.0825 5.10693C73.3328 2.81514 73.572 0.458283 74.8 -1.96363C75.1713 -2.69583 75.5845 -3.37132 76.0399 -3.99008C76.5238 -4.66517 77.1775 -5.39579 78.0009 -6.18194C78.8243 -6.96809 79.9456 -7.99263 81.3648 -9.25554L92.4335 -18.9369L100.797 -14.696ZM120.736 -4.58646L104.879 12.8627L106.876 4.31666C109.298 5.54465 110.912 7.24823 111.719 9.42738C112.526 11.6065 112.301 13.9352 111.044 16.4135C109.816 18.8354 108.028 20.4069 105.68 21.128C103.417 21.8213 101.13 21.5826 98.8212 20.4117C96.4556 19.2122 94.8555 17.4805 94.021 15.2165C93.2713 12.9247 93.5105 10.5678 94.7385 8.14591C95.1097 7.4137 95.523 6.73822 95.9784 6.11946C96.4623 5.44437 97.116 4.71375 97.9394 3.9276C98.7628 3.14144 99.8841 2.11691 101.303 0.853992L112.372 -8.82732L120.736 -4.58646Z" fill="#5CBEFF" fill-opacity="0.2"/>
<path d="M97.858 -16.1863L82.0011 1.26284L83.9978 -7.28323C86.4197 -6.05524 88.034 -4.35166 88.8408 -2.17251C89.6476 0.00663703 89.4227 2.33533 88.1662 4.81356C86.9382 7.23547 85.1501 8.80698 82.802 9.52809C80.5388 10.2214 78.2525 9.98266 75.9432 8.81178C73.5777 7.61235 71.9776 5.88061 71.1431 3.61658C70.3934 1.32478 70.6325 -1.03207 71.8605 -3.45398C72.2318 -4.18619 72.6451 -4.86167 73.1004 -5.48043C73.5843 -6.15552 74.238 -6.88614 75.0614 -7.6723C75.8849 -8.45845 77.0062 -9.48298 78.4253 -10.7459L89.494 -20.4272L97.858 -16.1863ZM117.797 -6.07681L101.94 11.3724L103.936 2.8263C106.358 4.0543 107.973 5.75787 108.779 7.93702C109.586 10.1162 109.361 12.4449 108.105 14.9231C106.877 17.345 105.089 18.9165 102.741 19.6376C100.477 20.331 98.191 20.0922 95.8817 18.9213C93.5162 17.7219 91.9161 15.9901 91.0815 13.7261C90.3319 11.4343 90.571 9.07746 91.799 6.65555C92.1703 5.92335 92.5836 5.24786 93.0389 4.6291C93.5228 3.95401 94.1765 3.22339 94.9999 2.43724C95.8234 1.65109 96.9447 0.626553 98.3638 -0.636364L109.433 -10.3177L117.797 -6.07681Z" fill="#5CBEFF" fill-opacity="0.2"/>
<path d="M97.858 -16.1863L98.2281 -15.8501L98.6693 -16.3356L98.0842 -16.6323L97.858 -16.1863ZM82.0011 1.26284L81.5143 1.14909L81.0762 3.02415L82.3712 1.59911L82.0011 1.26284ZM83.9978 -7.28323L84.2239 -7.72918L83.6558 -8.01723L83.5109 -7.39698L83.9978 -7.28323ZM88.8408 -2.17251L88.3719 -1.99892L88.8408 -2.17251ZM82.802 9.52808L82.9485 10.0062L82.9488 10.0061L82.802 9.52808ZM71.1431 3.61658L70.6678 3.77203L70.6707 3.78082L70.6739 3.78951L71.1431 3.61658ZM73.1004 -5.48043L73.5032 -5.18406L73.5068 -5.18914L73.1004 -5.48043ZM75.0614 -7.6723L75.4067 -7.31065L75.0614 -7.6723ZM78.4253 -10.7459L78.0962 -11.1223L78.093 -11.1194L78.4253 -10.7459ZM89.494 -20.4272L89.7201 -20.8732L89.419 -21.0259L89.1648 -20.8036L89.494 -20.4272ZM117.797 -6.07681L118.167 -5.74055L118.608 -6.22608L118.023 -6.52277L117.797 -6.07681ZM101.94 11.3724L101.453 11.2586L101.015 13.1337L102.31 11.7086L101.94 11.3724ZM103.936 2.8263L104.162 2.38035L103.594 2.09231L103.449 2.71255L103.936 2.8263ZM102.74 19.6376L102.887 20.1157L102.887 20.1156L102.74 19.6376ZM91.0815 13.7261L90.6063 13.8816L90.6092 13.8904L90.6124 13.899L91.0815 13.7261ZM93.0389 4.6291L93.4417 4.92548L93.4453 4.92039L93.0389 4.6291ZM94.9999 2.43724L94.6547 2.07559L94.9999 2.43724ZM98.3638 -0.636365L98.0347 -1.01273L98.0315 -1.00988L98.3638 -0.636365ZM109.433 -10.3177L109.659 -10.7636L109.357 -10.9163L109.103 -10.694L109.433 -10.3177ZM97.488 -16.5226L81.6311 0.926579L82.3712 1.59911L98.2281 -15.8501L97.488 -16.5226ZM82.488 1.3766L84.4847 -7.16948L83.5109 -7.39698L81.5143 1.14909L82.488 1.3766ZM83.7717 -6.83728C86.1014 -5.65601 87.6162 -4.04029 88.3719 -1.99892L89.3097 -2.34611C88.4519 -4.66304 86.738 -6.45447 84.2239 -7.72918L83.7717 -6.83728ZM88.3719 -1.99892C89.121 0.0242462 88.9272 2.20706 87.7202 4.58745L88.6121 5.03967C89.9183 2.4636 90.1743 -0.0109719 89.3097 -2.34611L88.3719 -1.99892ZM87.7202 4.58745C86.5465 6.90236 84.8592 8.37328 82.6552 9.05012L82.9488 10.0061C85.4411 9.24068 87.3299 7.56857 88.6121 5.03967L87.7202 4.58745ZM82.6555 9.05001C80.5281 9.70175 78.3751 9.48422 76.1694 8.36583L75.7171 9.25773C78.1299 10.4811 80.5494 10.7411 82.9485 10.0062L82.6555 9.05001ZM76.1694 8.36583C73.9042 7.21732 72.3986 5.57709 71.6122 3.44365L70.6739 3.78951C71.5566 6.18413 73.2511 8.00737 75.7171 9.25773L76.1694 8.36583ZM71.6183 3.46113C70.9152 1.31172 71.1302 -0.907954 72.3065 -3.22787L71.4146 -3.6801C70.1349 -1.15619 69.8716 1.33784 70.6678 3.77203L71.6183 3.46113ZM72.3065 -3.22787C72.6661 -3.93718 73.0652 -4.58896 73.5031 -5.18408L72.6977 -5.77678C72.225 -5.13439 71.7975 -4.4352 71.4146 -3.6801L72.3065 -3.22787ZM73.5068 -5.18914C73.9673 -5.83159 74.5982 -6.5387 75.4067 -7.31065L74.7162 -8.03394C73.8779 -7.23359 73.2014 -6.47946 72.6941 -5.77173L73.5068 -5.18914ZM75.4067 -7.31065C76.2241 -8.091 77.3405 -9.11115 78.7577 -10.3724L78.093 -11.1194C76.6719 -9.85481 75.5457 -8.82589 74.7162 -8.03394L75.4067 -7.31065ZM78.7545 -10.3695L89.8232 -20.0509L89.1648 -20.8036L78.0962 -11.1223L78.7545 -10.3695ZM89.2679 -19.9813L97.6319 -15.7404L98.0842 -16.6323L89.7201 -20.8732L89.2679 -19.9813ZM117.427 -6.41308L101.57 11.0361L102.31 11.7086L118.167 -5.74055L117.427 -6.41308ZM102.427 11.4861L104.423 2.94006L103.449 2.71255L101.453 11.2586L102.427 11.4861ZM103.71 3.27226C106.04 4.45353 107.555 6.06924 108.31 8.11062L109.248 7.76342C108.39 5.44649 106.676 3.65507 104.162 2.38035L103.71 3.27226ZM108.31 8.11062C109.059 10.1338 108.866 12.3166 107.659 14.697L108.551 15.1492C109.857 12.5731 110.113 10.0986 109.248 7.76342L108.31 8.11062ZM107.659 14.697C106.485 17.0119 104.798 18.4828 102.594 19.1597L102.887 20.1156C105.38 19.3502 107.268 17.6781 108.551 15.1492L107.659 14.697ZM102.594 19.1595C100.467 19.8113 98.3136 19.5938 96.1079 18.4754L95.6556 19.3673C98.0684 20.5906 100.488 20.8506 102.887 20.1157L102.594 19.1595ZM96.1079 18.4754C93.8427 17.3269 92.3371 15.6866 91.5507 13.5532L90.6124 13.899C91.4951 16.2937 93.1896 18.1169 95.6556 19.3673L96.1079 18.4754ZM91.5568 13.5707C90.8537 11.4213 91.0687 9.20158 92.245 6.88167L91.3531 6.42944C90.0734 8.95334 89.8101 11.4474 90.6063 13.8816L91.5568 13.5707ZM92.245 6.88167C92.6046 6.17236 93.0037 5.52058 93.4416 4.92545L92.6362 4.33275C92.1635 4.97515 91.736 5.67434 91.3531 6.42944L92.245 6.88167ZM93.4453 4.92039C93.9058 4.27795 94.5366 3.57083 95.3452 2.79888L94.6547 2.07559C93.8164 2.87595 93.1398 3.63008 92.6326 4.3378L93.4453 4.92039ZM95.3452 2.79888C96.1625 2.01853 97.279 0.99838 98.6962 -0.262845L98.0315 -1.00988C96.6104 0.254728 95.4842 1.28364 94.6547 2.07559L95.3452 2.79888ZM98.693 -0.260012L109.762 -9.94133L109.103 -10.694L98.0347 -1.01272L98.693 -0.260012ZM109.206 -9.87173L117.57 -5.63086L118.023 -6.52277L109.659 -10.7636L109.206 -9.87173Z" fill="#606060" fill-opacity="0.2"/>
<path d="M218.321 73.6892C223.593 72.8027 224.735 65.3426 219.017 63.9363C204.881 60.5589 190.553 58.921 176.17 58.9777C166.525 47.1971 152.602 38.6447 137.043 35.809C103.685 29.5753 71.2924 47.2581 52.497 74.3617C43.1688 87.7764 35.8401 104.042 39.2279 120.689C42.437 136.556 53.4405 151.093 65.6587 161.422C88.4983 180.927 126.222 192.819 155.061 179.88C172.006 172.28 179.583 152.58 183.71 135.609C185.867 126.597 186.88 117.579 186.84 108.371C189.753 103.532 192.712 98.6016 195.717 93.8088C201.032 85.3644 207.729 75.5536 218.321 73.6892Z" fill="#5CBEFF" fill-opacity="0.2"/>
<path d="M223.253 76.1903C228.526 75.3037 229.667 67.8437 223.949 66.4374C209.814 63.06 195.486 61.4221 181.102 61.4788C171.457 49.6982 157.534 41.1458 141.976 38.3101C108.618 32.0764 76.2251 49.7591 57.4297 76.8627C48.1014 90.2775 40.7727 106.543 44.1606 123.19C47.3696 139.057 58.3732 153.594 70.5913 163.923C93.431 183.428 131.155 195.32 159.994 182.381C176.939 174.781 184.516 155.081 188.642 138.11C190.8 129.098 191.813 120.08 191.773 110.872C194.686 106.033 197.645 101.103 200.649 96.3099C205.964 87.8655 212.661 78.0547 223.253 76.1903Z" fill="#5CBEFF" fill-opacity="0.2" stroke="#606060" stroke-opacity="0.2" stroke-miterlimit="10"/>
</svg>
